<svg width="360" height="122" viewBox="0 0 360 122" fill="none" xmlns="http://www.w3.org/2000/svg">
<rect width="360" height="122" fill="#FFFBFE"/>
<rect width="360" height="122" fill="#FFDBCE"/>
<path d="M155.9 35.8361C156.779 36.1974 157.69 37.0094 157.824 37.8874C157.913 38.4779 156.896 39.5697 156.128 39.8766C149.828 42.3903 146.811 51.567 150.581 57.045C153.297 60.9923 159.227 61.0933 161.468 56.9207C164.847 50.6384 165.026 44.0609 161.586 37.7048C159.715 34.2509 154.806 33.0815 150.455 34.6938C149.45 35.0668 148.551 35.7506 147.527 36.007C146.795 36.1896 145.558 36.1702 145.221 35.7467C144.777 35.195 144.659 33.9906 144.993 33.3573C146.233 31.0185 148.458 29.7325 151.085 29.2507C158.125 27.957 164.363 31.3487 167.088 37.6737C169.894 44.1852 170.089 50.7822 167.901 57.4257C166.368 62.084 163.062 65.398 158.279 67.057C151.801 69.3104 143.114 64.7065 141.296 57.9697C140.361 54.508 140.503 51.4426 140.902 49.0999C141.231 47.1729 141.792 44.0958 144.261 41.1937C145.233 40.0514 146.144 39.3521 146.786 38.8626C148.092 37.8835 152.594 34.4724 155.9 35.8361ZM164.81 42.4874C164.396 46.7339 163.961 51.1785 163.521 55.6502C165.921 52.5421 166.523 45.1215 164.81 42.4874ZM153.777 66.5286C150.67 64.8231 147.567 63.1214 144.546 61.4663C145.892 64.2209 150.715 66.9094 153.777 66.5286Z" fill="#DC3A39"/>
<path d="M185.893 45.7043C186.381 45.9762 186.779 46.1977 187.178 46.423C191.391 48.7852 192.237 53.3114 189.183 56.9867C186.71 59.9588 183.335 61.0117 179.549 61.2137C178.605 61.2642 177.649 61.2837 176.706 61.2448C174.075 61.136 172.403 59.7762 172.074 57.2742C171.854 55.6153 171.879 53.9252 171.85 52.2469C171.789 48.4355 171.626 44.6164 171.801 40.8129C171.85 39.7134 172.635 38.3031 173.558 37.6426C176.413 35.5913 180.964 35.735 183.888 37.6504C186.511 39.3715 187.312 41.6871 186.283 44.5776C186.149 44.9311 186.035 45.2886 185.893 45.7043ZM181.732 50.3742C180.968 50.5257 180.683 50.5335 180.443 50.6384C179.532 51.0347 178.129 51.2717 177.861 51.9244C177.499 52.7985 178.015 54.0068 178.154 55.0752C179.26 54.9354 180.374 54.8188 181.476 54.6401C181.797 54.5896 182.155 54.4381 182.379 54.2205C183.172 53.4435 183.912 52.6198 184.673 51.8156C183.575 51.2756 182.481 50.7394 181.732 50.3742ZM176.95 44.8029C177.222 44.9583 177.499 45.1137 177.771 45.2691C178.983 44.3251 180.195 43.381 181.407 42.4369C181.309 42.1649 181.212 41.893 181.118 41.621C179.866 41.621 178.394 41.248 177.442 41.7609C176.864 42.0678 177.088 43.7384 176.95 44.8029ZM173.269 56.9517C173.416 59.3644 175.278 60.7514 177.357 60.157C176.067 59.1468 174.721 58.0901 173.269 56.9517ZM175.193 37.7786C173.188 37.8796 172.196 39.5153 173.095 41.3724C173.77 40.2146 174.445 39.0607 175.193 37.7786Z" fill="#DC3A39"/>
<path d="M213.392 36.5587C212.998 36.6636 211.937 36.8929 210.761 36.4538C210.285 36.2751 208.976 35.7856 208.671 34.5385C208.439 33.5827 208.862 32.4755 209.631 32.0403C210.025 31.8189 210.534 31.8072 211.546 31.7917C212.673 31.7723 213.014 31.9277 213.376 31.6557C213.588 31.4964 213.852 31.3915 213.921 30.327C213.929 30.2221 213.929 30.2027 213.937 30.1444C213.962 29.9035 214.047 28.9983 214.751 28.4699C215.214 28.1202 215.739 28.0969 215.95 28.0853C217.467 28.0192 218.179 29.0566 218.269 30.2998C218.37 31.7179 219.066 32.0636 220.371 31.8888C220.904 31.8189 221.457 31.8072 221.99 31.8461C223.474 31.9587 224.129 32.829 224.133 34.1772C224.137 35.4942 223.344 36.2285 222.047 36.3684C221.071 36.4733 220.07 36.3878 219.143 36.3878C219.143 40.3934 219.098 44.1309 219.155 47.8645C219.228 52.5189 219.448 57.1733 219.46 61.8316C219.464 63.0748 219.147 64.4152 218.606 65.5419C218 66.8045 216.678 67.3951 215.19 67.0609C213.677 66.7191 212.73 65.7361 212.514 64.2326C212.412 63.5294 212.4 62.8106 212.425 62.1035C212.681 54.6091 212.949 47.1147 213.222 39.6202C213.258 38.6567 213.327 37.6932 213.392 36.5587ZM216.121 65.5574C215.292 63.6498 214.478 61.7849 213.632 59.8501C212.559 62.8261 214.1 65.6623 216.121 65.5574Z" fill="#DC3A39"/>
<path d="M195.165 38.952C196.385 37.5223 198.797 37.8914 199.639 38.0196C199.98 38.0701 201.806 38.3848 203.469 39.8339C204.893 41.0772 205.731 42.8138 206.109 44.9002C206.65 47.8917 206.211 50.8444 204.917 53.6223C203.575 56.4973 201.416 57.7561 198.764 57.3792C196.06 56.9946 193.713 54.6285 193.359 51.804C192.949 48.5405 193.343 45.4635 196.133 43.0664C195.905 42.9692 195.027 42.5613 194.649 41.6211C194.091 40.2497 195.108 39.0142 195.165 38.952ZM199.96 43.9833C199.586 45.04 199.102 45.9686 198.943 46.9437C198.691 48.5056 198.48 50.1062 198.597 51.6681C198.667 52.5694 199.5 53.1638 200.468 52.1848C202.099 50.5336 201.818 45.6888 199.96 43.9833ZM194.575 51.0426C194.258 54.4692 197.162 57.1811 200.757 56.3419C197.325 55.5843 195.69 53.5912 194.575 51.0426Z" fill="#DC3A39"/>
<path d="M144.586 75.6897C140.109 75.41 136.392 77.5157 132.451 78.9532C124.748 81.7583 117.676 78.2695 116.229 71.0237C116.143 70.5885 116.139 70.1379 116.07 69.3608C120.247 74.3066 125.57 73.413 130.906 72.8885C136.518 72.3407 138.067 71.8357 140.54 72.7992C142.447 73.5451 143.761 74.7573 144.586 75.6897Z" fill="#DC3A39"/>
<path d="M146.14 79.3613C142.472 80.0334 139.767 81.8789 137.274 84.0934C133.586 87.3724 129.515 89.754 124.155 88.911C120.153 88.2816 117.538 86.0204 115.684 82.2557C120.434 84.8937 124.679 83.6854 128.954 81.9138C132.353 80.5074 135.774 79.0971 139.299 78.0287C141.561 77.341 143.952 77.6285 146.14 79.3613Z" fill="#DC3A39"/>
<path d="M232.584 49.8303C232.348 52.2741 232.161 54.7256 231.86 57.1616C231.701 58.4437 231.197 59.652 229.57 59.683C227.907 59.7141 227.191 58.638 227.004 57.2043C226.28 51.6641 226.097 46.12 227.053 40.5798C227.281 39.2667 228.053 38.5401 229.525 38.4935C230.237 38.4702 230.786 38.645 231.185 38.9559C231.787 39.4221 231.933 40.1331 232.01 40.5565C232.449 43.0624 232.547 48.3385 232.551 48.692C232.559 49.0727 232.571 49.4496 232.584 49.8303Z" fill="#DC3A39"/>
<path d="M227.171 83.4175C228 82.7997 229.298 81.9839 231.03 81.4516C234.524 80.3832 237.378 81.2262 239.636 81.5215C242.482 81.8906 246.651 81.6769 252.198 78.9224C252.788 80.9504 251.299 84.1246 248.957 85.7524C245.939 87.8504 242.621 88.1962 239.148 87.0501C236.329 86.1176 235.528 85.6048 232.531 84.6413C230.335 83.9342 228.448 83.5962 227.171 83.4175Z" fill="#DC3A39"/>
<path d="M252.958 89.8901C250.392 95.4342 244.276 97.3029 238.647 94.424C237.171 93.6703 235.918 92.532 234.524 91.6228C231.998 89.9717 229.444 88.3593 226.911 86.7315C228.7 85.4027 231.173 85.5504 233.45 86.2652C236.716 87.2948 239.831 88.7478 243.019 90.0066C246.207 91.2615 249.416 91.5995 252.958 89.8901Z" fill="#DC3A39"/>
<path d="M124.387 81.5136C122.3 81.4553 117.615 81.0202 114.492 77.7528C113.109 76.3075 111.283 73.5258 112.089 72.1388C112.166 72.0067 112.511 71.4123 113.113 71.3307C113.78 71.2413 114.329 71.8513 114.419 71.9562C115.004 72.6322 114.846 73.4403 114.943 74.0775C115.147 75.445 116.005 76.3542 117.257 77.679C119.779 80.3481 123.244 81.2572 124.387 81.5136Z" fill="#DC3A39"/>
<path d="M128.628 70.8527C126.269 70.3321 123.943 69.2909 123.187 66.3615C122.739 64.621 123.284 63.1524 124.696 62.0451C124.907 61.8781 126.326 60.8641 126.961 61.272C127.738 61.7732 126.387 63.8129 126.652 66.4548C126.843 68.3973 127.831 69.897 128.628 70.8527Z" fill="#DC3A39"/>
<path d="M241.734 79.4C244.044 76.0316 244.011 74.6485 241.482 71.9833C242.356 70.8411 243.479 71.082 244.487 71.6337C246.142 72.5428 246.712 74.0036 246.329 75.783C245.898 77.7683 244.117 79.1592 241.734 79.4Z" fill="#DC3A39"/>
<path d="M245.829 89.1402C248.363 88.4176 250.376 87.256 251.84 85.6125C253.349 83.9147 252.751 80.997 254.365 80.2549C254.544 80.1734 255.614 79.6799 255.976 80.0374C256.057 80.119 256.082 80.2161 256.09 80.2783C256.171 80.962 256.094 81.7002 255.899 82.3685C254.642 86.7082 250.791 89.3267 245.829 89.1402Z" fill="#DC3A39"/>
<path d="M122.788 70.4604C122.402 70.8567 119.352 68.8714 117.485 66.3577C116.977 65.6739 116.513 64.8891 116.643 63.9683C116.668 63.7857 116.81 62.7872 117.688 62.3443C118.412 61.9791 119.368 62.1229 119.909 62.593C120.71 63.2884 120.194 64.3374 120.434 65.9653C120.856 68.8131 123.114 70.1263 122.788 70.4604Z" fill="#DC3A39"/>
<path d="M248.351 78.6736C249.286 76.8126 249.209 75.5422 248.932 74.7069C248.66 73.8754 248.151 73.3471 248.408 72.7099C248.664 72.0805 249.55 71.6376 250.339 71.7658C251.531 71.9601 251.917 73.3704 251.937 73.4597C252.34 75.0332 250.913 76.5368 250.27 77.2128C249.571 77.9432 248.847 78.4055 248.351 78.6736Z" fill="#DC3A39"/>
<path d="M146.709 39.7833C147.189 39.457 147.559 39.2355 147.714 39.1462C148.328 38.7965 148.885 38.544 149.32 38.3652C147.856 39.3054 145.762 40.9333 144.09 43.5286C143.423 44.562 142.951 45.5605 142.61 46.4424C142.886 45.2885 143.216 44.3561 143.48 43.6956C143.883 42.6855 144.086 42.1843 144.525 41.6132C145.115 40.8595 145.762 40.4321 146.709 39.7833Z" fill="white"/>
<path d="M164.81 42.4875C166.523 45.1217 165.921 52.5384 163.521 55.6504C163.96 51.1825 164.396 46.734 164.81 42.4875Z" fill="white"/>
<path d="M153.777 66.5286C150.711 66.9055 145.892 64.2209 144.546 61.4663C147.571 63.1253 150.67 64.827 153.777 66.5286Z" fill="white"/>
<path d="M183.44 50.483C183.497 50.5025 184.534 50.9104 184.669 51.8156C184.778 52.5538 184.205 53.1172 183.965 53.3542C183.823 53.494 183.603 53.6766 182.375 54.2167C181.558 54.578 181.151 54.7567 180.83 54.8499C180.285 55.0092 179.374 55.1996 178.154 55.0714C178.068 54.9315 177.043 53.2065 177.861 51.9205C178.369 51.1241 179.337 50.8949 180.443 50.6346C181.7 50.3432 182.773 50.3976 183.44 50.483Z" fill="#FFDBCE"/>
<path d="M176.95 44.8029C177.088 43.7423 176.864 42.0678 177.442 41.757C178.394 41.248 179.866 41.6171 181.118 41.6171C181.216 41.8891 181.313 42.161 181.407 42.433C180.195 43.3771 178.983 44.3212 177.771 45.2652C177.499 45.1098 177.226 44.9544 176.95 44.8029Z" fill="#FFDBCE"/>
<path d="M173.269 56.9519C174.721 58.0902 176.067 59.147 177.357 60.1571C175.278 60.7516 173.416 59.3646 173.269 56.9519Z" fill="white"/>
<path d="M175.193 37.7786C174.445 39.0607 173.77 40.2145 173.095 41.3723C172.2 39.5152 173.188 37.8796 175.193 37.7786Z" fill="white"/>
<path d="M216.121 65.5574C214.1 65.6623 212.563 62.8261 213.632 59.8501C214.474 61.7849 215.288 63.6498 216.121 65.5574Z" fill="white"/>
<path d="M199.96 43.9832C201.818 45.6887 202.099 50.5335 200.468 52.1847C199.5 53.1637 198.667 52.5693 198.597 51.668C198.479 50.1061 198.695 48.5016 198.943 46.9436C199.102 45.9685 199.586 45.0399 199.96 43.9832Z" fill="#FFDBCE"/>
<path d="M194.575 51.0425C195.69 53.5911 197.325 55.5842 200.757 56.3418C197.162 57.181 194.258 54.4731 194.575 51.0425Z" fill="white"/>
<path d="M149.414 79.3806C148.881 81.8244 149.149 83.7398 149.283 84.6567C149.462 85.8572 149.645 87.0227 150.459 88.3203C151.268 89.6102 152.256 90.3251 152.549 90.5271C153.611 91.2614 154.615 91.5489 155.034 91.6499C156.73 92.0656 158.141 91.7859 158.694 91.6499C160.292 91.2575 161.305 90.4533 161.83 90.0259C162.155 89.7617 162.875 89.1401 163.529 88.1533C164.172 87.1859 164.733 86.3467 164.575 85.2822C164.546 85.0879 164.4 84.1011 163.529 83.5338C162.728 83.0093 161.659 83.0676 160.914 83.4095C159.69 83.9729 159.654 85.2822 158.824 85.2822C158.3 85.2822 157.844 84.7693 157.746 84.6567C157.45 84.3225 157.344 83.9651 157.291 83.7203C156.945 82.1935 157.409 80.2237 157.486 79.9129C157.681 79.1164 157.986 78.0636 158.466 76.8514C158.503 76.7737 158.824 76.121 159.446 76.0394C159.983 75.9695 160.406 76.3697 160.687 76.6338C161.289 77.1972 161.171 77.5702 161.569 77.9121C162.22 78.4715 163.538 78.3433 164.347 77.8499C165.457 77.17 165.933 75.5926 165.359 74.0425C165.038 73.3781 164.249 72.0066 162.614 71.047C162.403 70.9227 161.455 70.3827 160.065 70.1418C158.3 69.8387 156.921 70.2078 156.6 70.2972C154.912 70.7789 153.887 71.7502 153.07 72.5467C150.373 75.1691 149.649 78.2889 149.414 79.3806Z" fill="#FF9CA0"/>
<path d="M172.68 90.2355C172.501 90.4725 172.586 90.4881 172.245 91.4438C171.691 93.0017 171.411 93.7826 170.805 94.1906C170.089 94.6762 169.097 94.7112 168.32 94.4392C168.178 94.3887 167.385 94.1012 166.88 93.3164C166.242 92.318 166.482 91.1602 166.62 90.5696C167.706 85.8531 170.671 79.5786 170.671 79.5786C172.407 75.911 173.05 74.357 174.855 72.834C176.344 71.5752 177.588 71.2178 178.385 71.0857C178.861 71.008 180.183 70.7865 181.521 71.3343C183.493 72.1425 184.274 74.12 184.921 75.8295C185.275 76.7697 185.429 77.4495 185.966 82.1972C185.994 82.4575 186.332 85.5151 186.356 89.4391C186.36 90.3482 186.352 91.8012 185.441 93.1843C185.108 93.6933 184.575 94.4742 183.611 94.684C182.684 94.8822 181.7 94.5286 181.126 93.9342C180.659 93.4485 180.553 92.8968 180.342 91.8129C180.073 90.4181 180.325 90.1462 179.992 89.7305C179.524 89.1438 178.572 89.1632 176.681 89.2293C174.599 89.3109 173.326 89.3691 172.68 90.2355Z" fill="#FF9CA0"/>
<path d="M195.686 88.7359C195.372 88.732 195.116 89.3497 194.815 90.0685C194.234 91.4593 194.51 91.9333 194.03 92.5666C193.258 93.5884 191.615 93.569 191.415 93.5651C190.155 93.534 189.004 92.8502 188.365 91.9838C188.081 91.5992 187.519 90.6629 188.365 85.4918C188.805 82.7994 188.992 82.8421 189.15 81.0783C189.276 79.6563 189.211 78.9725 189.411 76.8318C189.642 74.3259 189.87 73.7587 190.281 73.2536C190.342 73.1798 191.672 71.5869 193.246 71.921C194.461 72.1813 195.043 73.4284 195.076 73.5022C195.332 74.0734 195.389 74.7999 195.511 76.249C195.56 76.8318 195.555 77.0338 195.686 77.0805C196.043 77.2164 196.727 75.8955 198.211 74.085C199.183 72.9001 200.342 71.6996 201.957 70.9225C202.453 70.6855 202.945 70.5068 203.526 70.5884C204.368 70.7088 205.06 71.3343 205.356 72.0026C205.58 72.4999 205.564 72.97 205.531 73.2497C205.352 74.8426 203.99 76.4588 201.521 79.159C201.521 79.159 199.061 81.8514 199.431 82.9043C199.472 83.0247 199.541 83.1296 199.541 83.1296C199.7 83.3433 199.952 83.386 200.651 84.3185C201.542 85.5073 201.953 86.6806 202.742 88.9806C202.88 89.3886 203.478 91.1524 203.962 93.4757C204.1 94.144 204.234 94.8744 204.136 95.8068C204.047 96.6615 203.929 97.8659 203.002 98.3865C202.327 98.7673 201.554 98.6119 201.257 98.5536C200.692 98.4409 199.976 98.134 199.167 97.221C198.394 96.3507 198 95.4571 197.162 92.6404C196.361 89.9403 196.125 88.7398 195.686 88.7359Z" fill="#FF9CA0"/>
<path d="M209.891 73.9996C210.379 73.6927 210.802 73.6538 212.071 73.5839C216.251 73.3469 216.508 73.4712 218.171 73.3352C220.497 73.141 221.095 72.8068 222.266 73.2536C222.689 73.4129 223.856 73.8558 224.271 75.002C224.735 76.284 223.893 77.4263 223.836 77.5001C223.6 77.807 223.096 78.3237 221.396 78.7472C220.025 79.0891 219.24 79.0308 217.211 79.0813C214.043 79.1629 213.608 79.365 211.896 79.1629C210.143 78.957 209.256 78.8405 208.76 78.1644C207.902 77.0028 208.553 74.8465 209.891 73.9996Z" fill="#FF9CA0"/>
<path d="M208.846 83.0752C209.728 82.3914 210.367 82.6284 213.986 82.4924C216.382 82.403 217.402 82.2515 219.041 82.6595C220.099 82.9198 220.798 83.2655 221.221 83.9066C221.689 84.6215 221.587 85.3713 221.571 85.4878C221.416 86.5135 220.574 87.1041 220.265 87.3177C219.822 87.6285 219.2 87.9277 216.17 88.0676C215.267 88.1103 215.515 88.0753 211.205 87.986C209.671 87.9549 208.939 87.9432 208.329 87.4032C207.658 86.8088 207.561 85.9618 207.544 85.6549C207.463 84.1708 208.72 83.1723 208.846 83.0752Z" fill="#FF9CA0"/>
<path d="M211.026 90.4028C212.087 90.2979 211.859 90.4416 215.21 90.4844C216.516 90.5038 217.825 90.5543 219.131 90.566C220.656 90.5815 221.058 90.566 221.656 90.8146C222.01 90.9622 223.494 91.6421 223.747 93.0641C224.019 94.5871 222.669 95.7643 222.612 95.8109C221.908 96.4053 221.205 96.4791 216.512 96.3937C209.513 96.2693 210.521 96.0984 210.237 96.145C209.704 96.2305 208.642 96.4325 207.711 95.8964C206.959 95.4612 206.658 94.7541 206.576 94.5638C206.21 93.6702 206.345 92.6251 206.837 91.8986C207.634 90.7369 209.228 90.5776 211.026 90.4028Z" fill="#FF9CA0"/>
<path d="M157.079 77.3293C156.827 77.2788 156.209 78.6075 156.034 79.9945C155.839 81.5447 156.213 83.0754 156.469 83.0754C156.693 83.0754 156.848 81.9137 156.994 80.8259C157.035 80.5151 157.454 77.4031 157.079 77.3293Z" fill="white" stroke="white" stroke-width="0.1" stroke-miterlimit="10"/>
<path d="M154.465 73.4167C154.302 73.2691 154.733 72.5115 155.249 72.0025C155.371 71.8821 155.729 71.548 156.323 71.2877C157.104 70.9419 158.125 70.7981 158.214 71.0041C158.239 71.0623 158.206 71.1905 156.299 72.4182C154.725 73.4323 154.538 73.4828 154.465 73.4167Z" fill="white" stroke="white" stroke-width="0.1" stroke-miterlimit="10"/>
<path d="M163.18 76.665C163.184 76.8981 162.765 77.1389 162.395 77.1661C161.797 77.205 161.386 76.665 161.26 76.5018C160.699 75.7636 160.788 74.7263 161 74.6719C161.175 74.6253 161.268 75.3246 162.045 75.919C162.651 76.3775 163.176 76.4047 163.18 76.665Z" fill="white" stroke="white" stroke-width="0.1" stroke-miterlimit="10"/>
<path d="M155.424 89.5675C155.315 89.8355 154.375 89.785 153.68 89.5675C152.362 89.1556 151.703 88.0756 151.5 87.7376C150.808 86.5643 150.674 85.1034 150.975 84.9908C151.284 84.8781 151.699 86.269 153.415 87.823C154.578 88.872 155.542 89.28 155.424 89.5675Z" fill="white" stroke="#FF9CA0" stroke-width="0.1" stroke-miterlimit="10"/>
<path d="M162.269 85.0258C162.208 85.0918 162.412 85.2939 162.444 85.7756C162.448 85.8183 162.448 85.8494 162.448 85.8727C162.452 86.0126 162.444 86.2729 162.359 86.5876C162.355 86.6109 162.347 86.6381 162.33 86.6809C162.184 87.1432 161.964 87.2792 162.005 87.3608C162.082 87.5123 163.119 87.5006 163.485 86.8596C163.782 86.3467 163.445 85.7678 163.4 85.694C163.066 85.1346 162.363 84.9209 162.269 85.0258Z" fill="white" stroke="white" stroke-width="0.1" stroke-miterlimit="10"/>
<path d="M168.759 93.4797C168.601 93.6118 167.93 93.2466 167.539 92.7299C167.486 92.6599 166.966 91.945 167.19 91.0631C167.299 90.6241 167.604 90.1113 167.8 90.1462C168.007 90.1851 167.873 90.8106 168.149 91.813C168.438 92.8736 168.914 93.3515 168.759 93.4797Z" fill="white" stroke="white" stroke-width="0.1" stroke-miterlimit="10"/>
<path d="M177.035 73.5638C176.954 73.3738 177.498 72.837 178.105 72.6127C178.188 72.5823 179.022 72.2906 179.802 72.7598C180.19 72.9918 180.593 73.4321 180.503 73.6088C180.406 73.7961 179.846 73.4868 178.807 73.4617C177.708 73.4315 177.113 73.7488 177.035 73.5638Z" fill="white" stroke="white" stroke-width="0.1" stroke-miterlimit="10"/>
<path d="M176.996 40.6671C177.13 40.741 177.435 40.0844 178.301 39.42C179.72 38.3322 181.111 38.3866 181.091 38.0874C181.071 37.8193 179.952 37.493 179.001 37.8388C178.496 38.0214 178.199 38.3283 177.955 38.5886C177.15 39.4356 176.821 40.5739 176.996 40.6671Z" fill="#FFDBCE" stroke="#DC3A39" stroke-miterlimit="10"/>
<path d="M174.685 83.5727C174.815 83.8253 175.474 83.6582 176.95 83.6543C177.739 83.6543 178.381 83.701 178.78 83.7359C178.735 83.3241 178.666 82.6869 178.605 81.906C178.442 79.8042 178.52 79.0582 178.255 78.9922C177.906 78.9028 177.613 80.1927 176.165 81.8244C175.266 82.8346 174.538 83.2891 174.685 83.5727Z" fill="#FFDBCE" stroke="#FFDBCE" stroke-miterlimit="10"/>
<path d="M181.48 89.8199C181.24 89.847 181.192 90.9815 181.22 91.5682C181.232 91.8712 181.269 92.0693 181.334 92.2636C181.419 92.5278 181.57 92.9824 182.005 93.231C182.342 93.4253 182.887 93.5185 183.05 93.3126C183.213 93.1067 182.879 92.7298 182.44 91.8984C181.737 90.5658 181.684 89.7965 181.48 89.8199Z" fill="white" stroke="white" stroke-width="0.1" stroke-miterlimit="10"/>
<path d="M189.236 88.2349C189.37 88.231 189.557 88.872 189.931 90.1502C190.163 90.9312 190.244 91.3119 190.627 91.6499C190.988 91.9685 191.338 92.0035 191.322 92.1511C191.302 92.3687 190.517 92.6406 189.927 92.3997C189.26 92.1278 189.085 91.2886 188.967 90.733C188.719 89.4975 189.008 88.2427 189.236 88.2349Z" fill="white" stroke="white" stroke-width="0.1" stroke-miterlimit="10"/>
<path d="M190.895 76.9989C191.074 77.0222 191.375 76.3074 191.505 75.8334C191.615 75.4293 191.623 75.1185 191.867 74.6445C191.936 74.5086 191.997 74.392 192.115 74.2521C192.522 73.7587 192.993 73.7432 192.985 73.5878C192.977 73.3858 192.168 73.0516 191.59 73.3391C191.167 73.5489 191.041 74.0035 190.895 74.5863C190.606 75.713 190.663 76.9678 190.895 76.9989Z" fill="white" stroke="white" stroke-width="0.1" stroke-miterlimit="10"/>
<path d="M199.346 92.0654C199.561 92.8541 199.781 93.5029 199.956 93.9808C200.379 95.1425 200.598 95.7291 201.001 96.2303C201.66 97.0423 202.311 97.2404 202.221 97.4774C202.123 97.7377 201.237 97.8038 200.566 97.4774C200.375 97.3842 199.85 97.0889 199.431 96.0632C198.797 94.4975 199.094 92.9357 199.346 92.0654Z" fill="white" stroke="white" stroke-width="0.1" stroke-miterlimit="10"/>
<path d="M199.606 74.3338C199.488 74.2444 199.935 73.5451 200.391 72.8341C200.733 72.2979 200.92 72.0843 201.192 71.8978C201.562 71.6491 202.103 71.4471 202.221 71.5831C202.302 71.6763 202.213 71.9638 201.436 72.8302C200.074 74.1706 199.691 74.3959 199.606 74.3338Z" fill="white" stroke="white" stroke-width="0.1" stroke-miterlimit="10"/>
<path d="M222.526 75.0837C222.409 75.0954 222.612 75.7597 222.177 76.3309C221.721 76.9369 220.936 76.9369 220.957 77.0807C220.981 77.2555 222.221 77.5858 222.787 76.9564C223.401 76.2726 222.689 75.0643 222.526 75.0837Z" fill="white" stroke="#FF9CA0" stroke-width="0.1" stroke-miterlimit="10"/>
<path d="M210.851 77.745C210.753 77.9471 210.054 77.982 209.631 77.6635C208.923 77.1312 209.224 75.7869 209.456 75.7481C209.578 75.7287 209.623 76.0783 210.111 76.7466C210.59 77.4109 210.924 77.5896 210.851 77.745Z" fill="white" stroke="white" stroke-width="0.1" stroke-miterlimit="10"/>
<path d="M219.566 84.3224C219.513 84.3691 219.842 84.6333 219.871 85.115C219.887 85.3676 219.81 85.5502 219.696 85.8221C219.383 86.5681 218.826 87.1547 218.826 87.1547C218.427 87.3062 219.659 86.9022 220.001 86.6535C220.127 86.5642 220.737 86.1213 220.697 85.488C220.652 84.7071 219.647 84.2486 219.566 84.3224Z" fill="white" stroke="white" stroke-width="0.1" stroke-miterlimit="10"/>
<path d="M210.586 86.9061C210.558 87.0537 209.749 87.1936 209.147 86.8245C209.053 86.7662 208.708 86.5448 208.582 86.1174C208.399 85.4919 208.805 84.8081 209.017 84.8276C209.261 84.8509 209.065 85.7794 209.757 86.4088C210.168 86.774 210.611 86.7934 210.586 86.9061Z" fill="white" stroke="white" stroke-width="0.1" stroke-miterlimit="10"/>
<path d="M221.656 92.3143C221.506 92.3687 222.152 93.3944 221.656 94.187C221.172 94.964 219.977 94.9135 220.001 95.1039C220.026 95.2865 221.156 95.5312 221.917 94.9795C222.002 94.9174 222.254 94.727 222.396 94.3968C222.803 93.4294 221.823 92.2561 221.656 92.3143Z" fill="white" stroke="white" stroke-width="0.1" stroke-miterlimit="10"/>
<path d="M209.846 95.1038C209.806 95.2204 208.163 95.2748 207.711 94.3112C207.313 93.4682 208.114 92.4464 208.236 92.4813C208.337 92.5085 207.931 93.2584 208.281 93.981C208.699 94.8474 209.883 95.0028 209.846 95.1038Z" fill="white" stroke="white" stroke-width="0.1" stroke-miterlimit="10"/>
<path d="M227.407 41.2829C227.431 41.0459 227.492 40.502 227.931 40.0357C228.228 39.7211 228.696 39.4413 228.802 39.5346C228.94 39.6511 228.338 40.2067 228.017 41.2829C227.752 42.1726 227.874 42.7709 227.756 42.7825C227.618 42.7942 227.329 42.0521 227.407 41.2829Z" fill="white"/>
<path d="M228.887 58.933C229.395 59.0651 229.969 58.8669 230.367 58.4318C229.851 58.3502 229.216 58.1598 228.712 57.682C228.192 57.1886 228.086 56.6485 227.927 56.6835C227.74 56.7262 227.647 57.5343 228.013 58.1832C228.114 58.3541 228.362 58.7931 228.887 58.933Z" fill="white" stroke="#DC3A39" stroke-miterlimit="10"/>
<path d="M209.456 33.4971C209.285 33.5515 209.248 33.9555 209.326 34.2469C209.464 34.7559 209.976 34.9967 210.241 35.1211C211.042 35.4979 211.957 35.4163 211.985 35.2881C212.006 35.1832 211.44 35.1599 210.765 34.7054C209.915 34.1304 209.696 33.4194 209.456 33.4971Z" fill="white"/>
<path d="M222.441 34.4568C221.982 35.1911 221.018 35.2688 221.046 35.3737C221.083 35.5058 222.685 35.6651 223.181 34.7482C223.629 33.9167 222.819 32.8367 222.657 32.8755C222.522 32.9066 222.897 33.7303 222.441 34.4568Z" fill="white"/>
</svg>
